HIERARCHY
ROOT Hips
{
  OFFSET 0.000000 0.000000 0.000000
  CHANNELS 6 Xposition Yposition Zposition Xrotation Yrotation Zrotation
  JOINT Spine
  {
    OFFSET 0.785918 22.667751 -11.192521
    CHANNELS 3 Xrotation Yrotation Zrotation
    JOINT Chest
    {
      OFFSET 0.785918 22.667751 -11.192521
      CHANNELS 3 Xrotation Yrotation Zrotation
      JOINT Neck
      {
        OFFSET -0.660711 4.280912 -9.212176
        CHANNELS 3 Xrotation Yrotation Zrotation
        JOINT Head
        {
          OFFSET -0.391963 4.254871 -12.739320
          CHANNELS 3 Xrotation Yrotation Zrotation
          End Site
          {
            OFFSET -0.117589 1.276461 -3.821796
          }
        }
      }
      JOINT LeftCollar
      {
        OFFSET 3.000000 4.000000 0.000000
        CHANNELS 3 Xrotation Yrotation Zrotation
        JOINT LeftShoulder
        {
          OFFSET 16.621605 -2.780659 -2.297863
          CHANNELS 3 Xrotation Yrotation Zrotation
          JOINT LeftArm
          {
            OFFSET 7.570161 -18.010043 0.790673
            CHANNELS 3 Xrotation Yrotation Zrotation
            JOINT LeftForeArm
            {
              OFFSET 4.258502 -21.330331 -3.694189
              CHANNELS 3 Xrotation Yrotation Zrotation
              JOINT LeftHand
              {
                OFFSET -1.020528 -3.245478 -1.657259
                CHANNELS 3 Xrotation Yrotation Zrotation
                End Site
                {
                  OFFSET -0.306158 -0.973643 -0.497178
                }
              }
            }
          }
        }
      }
      JOINT RightCollar
      {
        OFFSET -3.000000 4.000000 0.000000
        CHANNELS 3 Xrotation Yrotation Zrotation
        JOINT RightShoulder
        {
          OFFSET -16.621605 2.780659 2.297863
          CHANNELS 3 Xrotation Yrotation Zrotation
          JOINT RightArm
          {
            OFFSET -7.047239 -26.880381 -0.525442
            CHANNELS 3 Xrotation Yrotation Zrotation
            JOINT RightForeArm
            {
              OFFSET -7.219958 -17.761464 -6.028907
              CHANNELS 3 Xrotation Yrotation Zrotation
              JOINT RightHand
              {
                OFFSET 1.362391 -2.129385 -3.788414
                CHANNELS 3 Xrotation Yrotation Zrotation
                End Site
                {
                  OFFSET 0.408717 -0.638815 -1.136524
                }
              }
            }
          }
        }
      }
    }
  }
  JOINT LeftUpLeg
  {
    OFFSET 10.014631 -0.404759 2.482655
    CHANNELS 3 Xrotation Yrotation Zrotation
    JOINT LeftLeg
    {
      OFFSET 2.113296 -38.097659 -0.269871
      CHANNELS 3 Xrotation Yrotation Zrotation
      JOINT LeftFoot
      {
        OFFSET -0.633741 -33.349279 19.614675
        CHANNELS 3 Xrotation Yrotation Zrotation
        End Site
        {
          OFFSET -0.190122 -10.004784 5.884402
        }
      }
    }
  }
  JOINT RightUpLeg
  {
    OFFSET -10.014631 0.404759 -2.482655
    CHANNELS 3 Xrotation Yrotation Zrotation
    JOINT RightLeg
    {
      OFFSET 1.865041 -30.879068 8.259322
      CHANNELS 3 Xrotation Yrotation Zrotation
      JOINT RightFoot
      {
        OFFSET -6.913018 -39.753150 16.368861
        CHANNELS 3 Xrotation Yrotation Zrotation
        End Site
        {
          OFFSET -2.073905 -11.925945 4.910658
        }
      }
    }
  }
}
MOTION
Frames: 14
Frame Time: 0.083333
7.856233 57.106608 9.766936 -2.366937 -1.584749 -3.211058 0.000000 0.000000 0.000000 -0.487886 1.912621 3.544492 0.360607 0.651346 0.013196 27.001654 0.460335 -13.603770 2.322257 -1.244099 -2.385128 1.846547 2.960059 60.752824 -6.689401 1.926239 -41.782040 0.000000 0.000000 0.000000 0.000000 0.000000 0.000000 2.322257 -1.244099 -2.385128 9.364177 3.059943 -41.700408 2.984374 7.044753 30.083958 0.000000 0.000000 0.000000 0.000000 0.000000 0.000000 6.227630 2.242725 -0.566973 1.430502 -2.179090 0.116422 0.000000 0.000000 0.000000 5.010288 -0.750129 -8.094076 11.451031 1.176917 5.904531 0.000000 0.000000 0.000000
7.743120 57.298197 11.291795 -2.242140 -1.534370 -3.113903 0.000000 0.000000 0.000000 -0.447396 1.848692 3.430945 0.370293 0.673089 0.029702 -179.088497 0.823848 -13.868102 2.181743 -1.127749 -2.354470 1.985120 2.676140 56.838482 -7.050951 2.301972 -38.407796 0.000000 0.000000 0.000000 0.000000 0.000000 0.000000 2.181743 -1.127749 -2.354470 8.662897 2.524531 -38.887179 3.328552 6.976475 27.812035 0.000000 0.000000 0.000000 0.000000 0.000000 0.000000 5.945134 2.232155 -0.230851 2.712633 -2.142801 -0.307859 0.000000 0.000000 0.000000 7.339754 -0.043193 -7.294884 9.208836 -0.104603 4.371417 0.000000 0.000000 0.000000
7.636786 57.546631 11.748462 -1.932494 -1.546404 -3.136921 0.000000 0.000000 0.000000 -0.557761 1.843501 3.441528 0.358981 0.648343 0.035668 -178.715024 1.044056 -14.367054 2.007018 -0.935032 -2.362098 2.368056 2.530243 51.524672 -7.394175 2.255498 -33.742946 0.000000 0.000000 0.000000 0.000000 0.000000 0.000000 2.007018 -0.935032 -2.362098 7.496271 2.053707 -35.659798 3.852584 6.997726 25.139520 0.000000 0.000000 0.000000 0.000000 0.000000 0.000000 5.659738 2.245496 -0.041467 3.835176 -1.988606 -0.298699 0.000000 0.000000 0.000000 12.499478 1.507227 -5.149559 0.169995 -3.214790 0.493114 0.000000 0.000000 0.000000
7.472706 57.957083 11.458270 -1.579194 -1.569899 -3.182161 0.000000 0.000000 0.000000 -0.661890 1.862394 3.476009 0.327022 0.610779 0.039216 -178.193293 1.547122 -15.190371 1.761810 -0.890068 -2.352419 3.520150 2.644240 45.983610 -7.224188 1.433197 -29.394548 0.000000 0.000000 0.000000 0.000000 0.000000 0.000000 1.761810 -0.890068 -2.352419 6.959841 1.835544 -31.975034 4.357597 6.791548 21.807315 0.000000 0.000000 0.000000 0.000000 0.000000 0.000000 5.409653 2.217510 -0.021160 3.231638 -1.966592 -0.204012 0.000000 0.000000 0.000000 15.427187 2.287299 -3.824832 -6.464666 -4.943606 -2.578252 0.000000 0.000000 0.000000
7.148827 58.430583 10.161891 -1.242903 -1.553393 -3.149100 0.000000 0.000000 0.000000 -0.667292 1.882396 3.438657 0.294565 0.548852 0.035911 -177.771783 1.999127 -16.136527 1.434568 -1.094690 -2.121415 4.460937 2.809029 39.883655 -6.192819 -0.115436 -24.841816 0.000000 0.000000 0.000000 0.000000 0.000000 0.000000 1.434568 -1.094690 -2.121415 6.466960 1.709986 -28.507979 4.845525 6.513100 18.900091 0.000000 0.000000 0.000000 0.000000 0.000000 0.000000 4.739972 2.135493 0.048231 2.191182 -1.829543 0.057331 0.000000 0.000000 0.000000 14.670037 2.190085 -3.843811 -6.798327 -4.829052 -2.266367 0.000000 0.000000 0.000000
6.804903 58.749670 8.512279 -0.576115 -1.517900 -3.077939 0.000000 0.000000 0.000000 -0.990932 1.883621 3.378224 0.264707 0.474148 0.026659 -176.707563 1.838846 -17.111899 1.075927 -1.317593 -2.050868 4.371406 2.787830 33.946043 -4.757976 -1.542788 -20.472112 0.000000 0.000000 0.000000 0.000000 0.000000 0.000000 1.075927 -1.317593 -2.050868 5.894705 1.396538 -25.184678 5.260435 6.107644 16.427605 0.000000 0.000000 0.000000 0.000000 0.000000 0.000000 3.536008 2.022400 0.390895 -0.271579 -1.678753 0.184947 0.000000 0.000000 0.000000 13.880926 2.140824 -3.838335 -7.088353 -4.685510 -1.839717 0.000000 0.000000 0.000000
6.439202 58.858005 7.421493 0.128017 -1.518016 -3.076120 0.000000 0.000000 0.000000 -1.223761 1.859132 3.351058 0.265713 0.450617 0.045701 -175.889286 1.834419 -18.343847 0.615637 -1.250336 -2.014499 5.744192 2.738889 28.263975 -4.421206 -2.047200 -16.995482 0.000000 0.000000 0.000000 0.000000 0.000000 0.000000 0.615637 -1.250336 -2.014499 6.031507 0.861995 -21.217190 5.018366 5.173700 13.599917 0.000000 0.000000 0.000000 0.000000 0.000000 0.000000 1.149708 1.741244 1.007365 -2.367366 -1.495257 -0.109484 0.000000 0.000000 0.000000 12.718792 2.092473 -3.370481 -6.872718 -4.696195 -2.508614 0.000000 0.000000 0.000000
6.005196 58.999113 6.285693 0.967637 -1.502048 -3.040610 0.000000 0.000000 0.000000 -1.486285 1.818246 3.284146 0.219844 0.412311 0.064929 -175.670069 1.991906 -18.773808 0.098851 -0.979580 -1.853076 4.629642 2.503312 22.854989 -5.185118 -1.407518 -13.431792 0.000000 0.000000 0.000000 0.000000 0.000000 0.000000 0.098851 -0.979580 -1.853076 5.362542 0.602360 -16.834297 4.506192 4.161265 10.717965 0.000000 0.000000 0.000000 0.000000 0.000000 0.000000 -1.107728 1.482621 1.212857 0.164761 -1.084787 0.045703 0.000000 0.000000 0.000000 11.609991 2.014591 -3.071656 -7.436204 -4.628602 -2.765995 0.000000 0.000000 0.000000
5.549094 59.180201 4.721314 1.750419 -1.473431 -2.978109 0.000000 0.000000 0.000000 -1.931771 1.741744 3.200989 0.172981 0.376492 0.073337 -175.515940 1.494399 -18.567671 -0.227909 -0.950643 -1.790997 2.165941 2.226307 18.905852 -6.280241 -0.334118 -11.517586 0.000000 0.000000 0.000000 0.000000 0.000000 0.000000 -0.227909 -0.950643 -1.790997 4.976954 0.682525 -11.730532 2.852563 2.880375 7.053034 0.000000 0.000000 0.000000 0.000000 0.000000 0.000000 -1.740951 1.414224 1.831772 -0.477988 -1.032574 -0.528416 0.000000 0.000000 0.000000 9.823850 1.868677 -2.465414 -8.274229 -4.316782 -3.064326 0.000000 0.000000 0.000000
5.159912 59.309609 3.722432 2.326372 -1.448988 -2.923513 0.000000 0.000000 0.000000 -2.305803 1.654427 3.122004 0.166241 0.359204 0.083047 -175.106664 0.697582 -18.098407 -0.468743 -1.280516 -1.655639 2.345374 1.993874 12.740400 -7.086220 -0.380075 -7.292338 0.000000 0.000000 0.000000 0.000000 0.000000 0.000000 -0.468743 -1.280516 -1.655639 4.760071 0.302538 -6.591940 2.634262 2.422941 3.072018 0.000000 0.000000 0.000000 0.000000 0.000000 0.000000 -1.485884 1.337626 2.258782 -1.821714 -1.078780 -1.200076 0.000000 0.000000 0.000000 7.512490 1.466697 -1.935629 -7.224715 -3.701839 -3.394241 0.000000 0.000000 0.000000
4.786305 59.394858 3.686561 1.983613 -1.368560 -2.755233 0.000000 0.000000 0.000000 -1.771913 1.500774 2.877834 0.208541 0.365429 0.107267 -174.718687 0.413133 -17.618467 -0.628374 -1.069230 -1.592931 0.896549 0.745374 6.076574 -6.715343 -0.328893 -2.066371 0.000000 0.000000 0.000000 0.000000 0.000000 0.000000 -0.628374 -1.069230 -1.592931 4.234370 -0.296585 -3.142117 1.876241 1.880135 0.895927 0.000000 0.000000 0.000000 0.000000 0.000000 0.000000 -1.097512 1.274324 2.620431 -1.118174 -0.984069 -1.617084 0.000000 0.000000 0.000000 6.260737 0.963513 -3.056619 -6.109157 -3.183512 -1.931182 0.000000 0.000000 0.000000
4.446523 59.454328 3.975832 1.572839 -1.292767 -2.599928 0.000000 0.000000 0.000000 -1.109373 1.360211 2.642416 0.211642 0.385345 0.138981 -174.632178 0.042036 -17.259359 -0.796713 -0.475162 -1.573605 -1.352545 -0.749782 -0.519767 -6.083703 0.136269 3.648795 0.000000 0.000000 0.000000 0.000000 0.000000 0.000000 -0.796713 -0.475162 -1.573605 3.033804 -0.385853 -1.614229 1.377493 1.133829 1.051868 0.000000 0.000000 0.000000 0.000000 0.000000 0.000000 -0.362874 1.227784 2.930647 -1.497335 -0.649948 -1.593445 0.000000 0.000000 0.000000 6.266288 0.896807 -2.862984 -6.517137 -3.254334 -2.527035 0.000000 0.000000 0.000000
4.262473 59.513068 4.777582 1.338655 -1.198056 -2.405457 0.000000 0.000000 0.000000 -0.741492 1.178598 2.379106 0.239661 0.412862 0.167845 -174.792886 -0.132204 -17.060318 -0.889110 -0.126602 -1.581655 -2.633434 -1.697632 -4.134632 -5.556228 0.720722 6.822105 0.000000 0.000000 0.000000 0.000000 0.000000 0.000000 -0.889110 -0.126602 -1.581655 1.463653 -0.086583 -1.303889 0.616200 0.307897 2.574697 0.000000 0.000000 0.000000 0.000000 0.000000 0.000000 1.647197 1.283188 3.363144 -3.596445 -0.230160 -1.541565 0.000000 0.000000 0.000000 6.489417 0.815096 -2.892355 -6.031843 -3.259270 -2.697291 0.000000 0.000000 0.000000
4.192313 59.567815 5.849704 1.028849 -1.108541 -2.224682 0.000000 0.000000 0.000000 -0.308331 1.030199 2.142109 0.237620 0.443729 0.194850 -174.628255 -0.252552 -16.703434 -1.023820 -0.023931 -1.719264 -5.013146 -2.825421 -3.905422 -3.567601 2.104756 6.319536 0.000000 0.000000 0.000000 0.000000 0.000000 0.000000 -1.023820 -0.023931 -1.719264 -1.189388 0.549645 -1.369148 1.089298 -0.416516 3.520577 0.000000 0.000000 0.000000 0.000000 0.000000 0.000000 4.248999 1.413576 3.382169 -6.089456 -0.010494 -1.316087 0.000000 0.000000 0.000000 6.649238 0.741561 -3.034141 -5.962419 -3.178948 -2.464702 0.000000 0.000000 0.000000
